#tb 0: 1/25
#media_type 0: video
#codec_id 0: h264
#dimensions 0: 640x360
#sar 0: 1/1
0,         -1,          0,        1,    16756, 0x6a2583f2
0,          0,          1,        1,     3620, 0x8c65ffd8, F=0x0
0,          1,          2,        1,     4277, 0x727456d2, F=0x0
0,          2,          3,        1,     3737, 0x57894393, F=0x0
0,          3,          4,        1,     4854, 0xe1707757, F=0x0
0,          4,          5,        1,     3875, 0xfd8b8076, F=0x0
0,          5,          6,        1,     4334, 0xe1d29d8d, F=0x0
0,          6,          7,        1,     3650, 0x5bb81fcc, F=0x0
0,          7,          8,        1,     4672, 0xe88a1b5b, F=0x0
0,          8,          9,        1,     3680, 0x713c3dbb, F=0x0
0,          9,         10,        1,     4082, 0x9a8d09a5, F=0x0
0,         10,         11,        1,     3787, 0xf72a6871, F=0x0
0,         11,         12,        1,    15957, 0x05f7e61b
0,         12,         13,        1,     3842, 0x37f969c6, F=0x0
0,         13,         14,        1,     4184, 0x94ae1d6d, F=0x0
0,         14,         15,        1,     4020, 0xdbaabbb7, F=0x0
0,         15,         16,        1,     4380, 0xdb4d7e6a, F=0x0
0,         16,         17,        1,     3972, 0x9a08c95c, F=0x0
0,         17,         18,        1,     4392, 0x68eca0da, F=0x0
0,         18,         19,        1,     4137, 0x195d20c7, F=0x0
0,         19,         20,        1,     4378, 0x7b956e76, F=0x0
0,         20,         21,        1,     5340, 0xa4c18330, F=0x0
0,         21,         22,        1,     5062, 0x1000fb75, F=0x0
0,         22,         23,        1,     5053, 0xad06e922, F=0x0
0,         23,         24,        1,    15738, 0x569ba5c7
0,         24,         25,        1,     3542, 0xe5bdeadf, F=0x0
0,         25,         26,        1,     4110, 0x821ef667, F=0x0
0,         26,         27,        1,     3911, 0x3a14ad7a, F=0x0
0,         27,         28,        1,     4218, 0xbfa43ad4, F=0x0
0,         28,         29,        1,     3642, 0x573d1f1d, F=0x0
0,         29,         30,        1,     4120, 0x7ead0012, F=0x0
0,         30,         31,        1,     4019, 0x0d67dd0c, F=0x0
0,         31,         32,        1,     4155, 0x20d8161b, F=0x0
0,         32,         33,        1,     3830, 0xa44c570a, F=0x0
0,         33,         34,        1,     4493, 0xb5c7c257, F=0x0
0,         34,         35,        1,     4733, 0x1e814814, F=0x0
0,         35,         36,        1,    15036, 0xfe9967b8
0,         36,         37,        1,     4131, 0xc30a0f6a, F=0x0
0,         37,         38,        1,     4460, 0xeb73926d, F=0x0
0,         38,         39,        1,     4367, 0x7b5e8b98, F=0x0
0,         39,         40,        1,     4169, 0x68c829bd, F=0x0
0,         40,         41,        1,     3723, 0x5d8141a8, F=0x0
0,         41,         42,        1,     4290, 0xbe4152f3, F=0x0
0,         42,         43,        1,     4094, 0xd2defea2, F=0x0
0,         43,         44,        1,     4129, 0x972a089b, F=0x0
0,         44,         45,        1,     5331, 0x25d7694a, F=0x0
0,         45,         46,        1,     5110, 0x7e11112b, F=0x0
0,         46,         47,        1,     5088, 0xab7f1653, F=0x0
0,         47,         48,        1,    15396, 0x700025d8
0,         48,         49,        1,     3581, 0xc53ff747, F=0x0
0,         49,         50,        1,     4046, 0x75650389, F=0x0
0,         50,         51,        1,     4192, 0xafb12971, F=0x0
0,         51,         52,        1,     4333, 0xd6e27bee, F=0x0
0,         52,         53,        1,     3885, 0x03f980a7, F=0x0
0,         53,         54,        1,     4249, 0x6f144883, F=0x0
0,         54,         55,        1,     4209, 0x5f2148c3, F=0x0
0,         55,         56,        1,     4935, 0xfc0d9f6a, F=0x0
0,         56,         57,        1,     4058, 0x8e56f68a, F=0x0
0,         57,         58,        1,     4539, 0x75250343, F=0x0
0,         58,         59,        1,     3798, 0x675a7f2b, F=0x0
0,         59,         60,        1,    14302, 0xd5eba733
0,         60,         61,        1,     4326, 0x23105ab4, F=0x0
0,         61,         62,        1,     4306, 0x892568e2, F=0x0
0,         62,         63,        1,     4231, 0x11cf4272, F=0x0
0,         63,         64,        1,     4136, 0x24520551, F=0x0
0,         64,         65,        1,     3944, 0x8ece9ddd, F=0x0
0,         65,         66,        1,     4249, 0x007561a0, F=0x0
0,         66,         67,        1,     4019, 0xd243eaac, F=0x0
0,         67,         68,        1,     4038, 0xc447d275, F=0x0
0,         68,         69,        1,     5065, 0x8215fe4e, F=0x0
0,         69,         70,        1,     5077, 0x2b7ae5c2, F=0x0
0,         70,         71,        1,     4600, 0x93e70dc3, F=0x0
0,         71,         72,        1,    14246, 0x888cbcfb
0,         72,         73,        1,     3460, 0x9edba8a0, F=0x0
0,         73,         74,        1,     3843, 0x43778d13, F=0x0
0,         74,         75,        1,     3894, 0x6d827e04, F=0x0
0,         75,         76,        1,     4082, 0xc8f9e0e7, F=0x0
0,         76,         77,        1,     3414, 0xe4aa985b, F=0x0
0,         77,         78,        1,     3755, 0x96af5e15, F=0x0
0,         78,         79,        1,     4098, 0x97d4f76d, F=0x0
0,         79,         80,        1,     3910, 0x5303b4c5, F=0x0
0,         80,         81,        1,     3627, 0x408a076d, F=0x0
0,         81,         82,        1,     4206, 0x1fca279a, F=0x0
0,         82,         83,        1,     3924, 0x638ab52e, F=0x0
0,         83,         84,        1,    13381, 0x740e1214
0,         84,         85,        1,     3876, 0xe55ea116, F=0x0
0,         85,         86,        1,     3921, 0x21729643, F=0x0
0,         86,         87,        1,     4008, 0xbf0fc486, F=0x0
0,         87,         88,        1,     3816, 0x246b67e5, F=0x0
0,         88,         89,        1,     3805, 0xebca72be, F=0x0
0,         89,         90,        1,     4029, 0x870ec91d, F=0x0
0,         90,         91,        1,     3685, 0xc75a3b4b, F=0x0
0,         91,         92,        1,     4141, 0xcafe27ee, F=0x0
0,         92,         93,        1,     5320, 0x824b6636, F=0x0
0,         93,         94,        1,     4855, 0x9f906cdf, F=0x0
0,         94,         95,        1,     4915, 0x26f3ab8f, F=0x0
0,         95,         96,        1,    14602, 0x634b6b10
0,         96,         97,        1,     3702, 0x694c30a8, F=0x0
0,         97,         98,        1,     4235, 0x97b1405e, F=0x0
0,         98,         99,        1,     4021, 0x5791cd30, F=0x0
0,         99,        100,        1,     4622, 0x91b0020e, F=0x0
0,        100,        101,        1,     4189, 0xca1b358f, F=0x0
0,        101,        102,        1,     4333, 0x4a7663a9, F=0x0
0,        102,        103,        1,     3990, 0x592fbaa9, F=0x0
0,        103,        104,        1,     4351, 0xa3e367f6, F=0x0
0,        104,        105,        1,     4813, 0x3ba96b6e, F=0x0
0,        105,        106,        1,     4967, 0x58e57aaf, F=0x0
0,        106,        107,        1,     4657, 0x0e5024e5, F=0x0
0,        107,        108,        1,    14886, 0x9b6c4c0d
0,        108,        109,        1,     4399, 0x11d47578, F=0x0
0,        109,        110,        1,     5146, 0x98a318dc, F=0x0
0,        110,        111,        1,     1664, 0x1b5f3afc, F=0x0
0,        111,        112,        1,      813, 0xcab598cb, F=0x0
0,        112,        113,        1,      955, 0x7946d27e, F=0x0
0,        113,        114,        1,      688, 0x3a815a6b, F=0x0
0,        114,        115,        1,     1294, 0x04fc8285, F=0x0
0,        115,        116,        1,     1028, 0x594b04bf, F=0x0
0,        116,        117,        1,     3614, 0xebb8fd50, F=0x0
0,        117,        118,        1,     3140, 0x738ff353, F=0x0
0,        118,        119,        1,     3290, 0xbc686cc2, F=0x0
0,        119,        120,        1,    16684, 0x3f597aad
0,        120,        121,        1,     1222, 0x653f6915, F=0x0
0,        121,        122,        1,      739, 0x76ce6b44, F=0x0
0,        122,        123,        1,      716, 0xf5275a8b, F=0x0
0,        123,        124,        1,      479, 0x5635f2c6, F=0x0
0,        124,        125,        1,      659, 0xe19c499d, F=0x0
